<?xml version="1.0" encoding="iso-8859-1"?>
<!-- Generator: Adobe Illustrator 19.0.0, SVG Export Plug-In . SVG Version: 6.00 Build 0)  -->
<svg version="1.1" id="Capa_1" xmlns="http://www.w3.org/2000/svg" xmlns:xlink="http://www.w3.org/1999/xlink" x="0px" y="0px"
	 viewBox="0 0 460 460" style="enable-background:new 0 0 460 460;" xml:space="preserve">
<g id="XMLID_237_">
	<path id="XMLID_238_" style="fill:#B39A7C;" d="M145,190c-16.542,0-30-13.458-30-30v-20H75v20c0,38.598,31.402,70,70,70h65v-40H145
		z"/>
	<path id="XMLID_239_" style="fill:#00CCB3;" d="M95,90H50c-27.5,0-50,22.5-50,50h95V90z"/>
	<path id="XMLID_240_" style="fill:#00AA95;" d="M190,140c0-27.5-22.5-50-50-50H95v50H190z"/>
	<path id="XMLID_241_" style="fill:#B39A7C;" d="M145,370c-16.542,0-30-13.458-30-30v-20H75v20c0,38.598,31.402,70,70,70h65v-40H145
		z"/>
	<path id="XMLID_242_" style="fill:#00CCB3;" d="M95,270H50c-27.5,0-50,22.5-50,50h95V270z"/>
	<path id="XMLID_243_" style="fill:#00AA95;" d="M190,320c0-27.5-22.5-50-50-50H95v50H190z"/>
	<path id="XMLID_244_" style="fill:#008877;" d="M460,140c0-27.5-22.5-50-50-50h-45v50H460z"/>
	<path id="XMLID_245_" style="fill:#00AA95;" d="M365,90h-45c-27.5,0-50,22.5-50,50h95V90z"/>
	<path id="XMLID_307_" style="fill:#A78966;" d="M345,320v20c0,16.542-13.458,30-30,30h-65V230h65c38.598,0,70-31.402,70-70v-20h-40
		v20c0,16.542-13.458,30-30,30h-65V50h-40v410h40v-50h65c38.598,0,70-31.402,70-70v-20H345z"/>
	<path id="XMLID_308_" style="fill:#008877;" d="M410,270h-45v50h95C460,292.5,437.5,270,410,270z"/>
	<path id="XMLID_309_" style="fill:#00AA95;" d="M365,270h-45c-27.5,0-50,22.5-50,50h95V270z"/>
	<path id="XMLID_311_" style="fill:#008877;" d="M325,50c0-27.5-22.5-50-50-50h-45v50H325z"/>
	<path id="XMLID_312_" style="fill:#00AA95;" d="M230,0h-45c-27.5,0-50,22.5-50,50h95V0z"/>
</g>
<g>
</g>
<g>
</g>
<g>
</g>
<g>
</g>
<g>
</g>
<g>
</g>
<g>
</g>
<g>
</g>
<g>
</g>
<g>
</g>
<g>
</g>
<g>
</g>
<g>
</g>
<g>
</g>
<g>
</g>
</svg>
